<svg width="48" height="48" viewBox="0 0 48 48" fill="none" xmlns="http://www.w3.org/2000/svg">
<path d="M46 24C46 11.8498 36.1502 2 24 2C11.8498 2 2 11.8496 2 24C2 34.9808 10.0451 44.0824 20.5625 45.7327V30.3594H14.9766V24H20.5625V19.1531C20.5625 13.6394 23.847 10.5938 28.8721 10.5938C31.2792 10.5938 33.7969 11.0234 33.7969 11.0234V16.4375H31.0228C28.2897 16.4375 27.4375 18.1334 27.4375 19.8733V24H33.5391L32.5637 30.3594H27.4375V45.7327C37.9549 44.0824 46 34.9809 46 24Z" fill="#1877F2"/>
<path d="M32.5637 30.3594L33.5391 24H27.4375V19.8733C27.4375 18.1332 28.2898 16.4375 31.0228 16.4375H33.7969V11.0234C33.7969 11.0234 31.2792 10.5938 28.8721 10.5938C23.847 10.5938 20.5625 13.6394 20.5625 19.1531V24H14.9766V30.3594H20.5625V45.7327C21.6997 45.9109 22.849 46.0003 24 46C25.151 46.0003 26.3003 45.911 27.4375 45.7327V30.3594H32.5637Z" fill="white"/>
</svg>
