<svg width="48" height="48" viewBox="0 0 48 48" fill="none" xmlns="http://www.w3.org/2000/svg">
<path d="M46 10.354C44.3524 11.0839 42.6047 11.563 40.8152 11.7754C42.6792 10.6582 44.1104 8.88908 44.7843 6.7812C43.0124 7.83271 41.0737 8.57356 39.0521 8.97175C37.4054 7.21742 35.0595 6.12103 32.463 6.12103C27.4775 6.12103 23.4356 10.1628 23.4356 15.1479C23.4356 15.8555 23.5155 16.5444 23.6693 17.2053C16.167 16.8287 9.51541 13.2349 5.06298 7.77344C4.28611 9.10667 3.84095 10.6575 3.84095 12.3116C3.84095 15.4435 5.43475 18.2064 7.85681 19.8253C6.42329 19.7804 5.0213 19.3932 3.76791 18.6961C3.76739 18.7339 3.76739 18.7717 3.76739 18.8097C3.76739 23.1834 6.87902 26.832 11.0085 27.6613C9.67918 28.0228 8.28483 28.0757 6.93195 27.816C8.08059 31.4023 11.4145 34.012 15.3645 34.0851C12.275 36.5061 8.38258 37.9494 4.15342 37.9494C3.42467 37.9494 2.70623 37.9066 2 37.8232C5.99489 40.3845 10.7398 41.8789 15.8377 41.8789C32.442 41.8789 41.5216 28.1236 41.5216 16.1948C41.5216 15.8033 41.513 15.414 41.4955 15.0269C43.2628 13.7493 44.7881 12.1669 46 10.354Z" fill="#55ACEE"/>
</svg>
